# xmcd
# Track frame offsets:
# 183
# 12225
# 28295
# 42255
# 55845
# 74663
# 87123
# 102103
# 114373
# 126620
#
# Disc length: 1905 seconds
# Revision: 4
# Processed by: cddbd v1.5.1PL0 Copyright (c) Steve Scherf et al.
# Submitted via: VisiTrax 2.9.10.220 - For more info visit www.synapsa.com
#
DISCID=88076f0a
DTITLE=Holly Dunn - The Blue Rose Of Texas
DYEAR=1989
DGENRE=country
TTITLE0=Are You Ever Gonna Love Me
TTITLE1=You're Still Keeping Me Up At Night
TTITLE2=Most Of All, Why
TTITLE3=Thunder And Lightnin'
TTITLE4=No One Takes The Train Anymore
TTITLE5=The Blue Rose Of Texas
TTITLE6=Sometime Today
TTITLE7=There Goes My Heart Again
TTITLE8=If I'd Never Loved You
TTITLE9=There's No Heart So Strong
EXTD=more info\nMillenniumMusicProjectFormat, syntax as follows:\nTitle{Sub
EXTD=title}[info](Lyricist;Composer;Date,Artist,Location)[info]\ncorrection
EXTD=s to: windking3@yahoo.com
EXTT0=
EXTT1=
EXTT2=
EXTT3=
EXTT4=
EXTT5=
EXTT6=
EXTT7=
EXTT8=
EXTT9=
PLAYORDER=
